<?xml version="1.0" encoding="utf-8"?>
<!-- Generator: Adobe Illustrator 16.0.3, SVG Export Plug-In . SVG Version: 6.00 Build 0)  -->
<!DOCTYPE svg PUBLIC "-//W3C//DTD SVG 1.1//EN" "http://www.w3.org/Graphics/SVG/1.1/DTD/svg11.dtd">
<svg version="1.1" id="Capa_1" xmlns="http://www.w3.org/2000/svg" xmlns:xlink="http://www.w3.org/1999/xlink" x="0px" y="0px"
	 width="150px" height="150px" viewBox="0 0 150 150" enable-background="new 0 0 150 150" xml:space="preserve">
<rect x="60.467" y="15.078" fill="#335BA5" width="28.721" height="6.329"/>
<circle fill="none" stroke="#335BA5" stroke-width="5" stroke-miterlimit="10" cx="75.178" cy="75.382" r="53.977"/>
<text transform="matrix(1 0 0 1 72.8276 123.8789)" fill="#FFFFFF" font-family="'ArialMT'" font-size="10">S</text>
<text transform="matrix(1 0 0 1 118.2227 77.4727)" fill="#FFFFFF" font-family="'ArialMT'" font-size="10">E</text>
<rect x="36.921" y="45.293" transform="matrix(0.7432 0.6691 -0.6691 0.7432 41.4804 -15.7656)" fill="#FFFFFF" width="8.714" height="1.722"/>
<rect x="104.887" y="45.563" transform="matrix(0.7579 -0.6524 0.6524 0.7579 -3.8366 82.5116)" fill="#FFFFFF" width="8.713" height="1.724"/>
<rect x="104.332" y="104.144" transform="matrix(0.7433 0.6689 -0.6689 0.7433 98.1298 -45.7562)" fill="#FFFFFF" width="8.714" height="1.701"/>
<rect x="37.012" y="104.395" transform="matrix(-0.7125 0.7017 -0.7017 -0.7125 144.6988 151.226)" fill="#FFFFFF" width="8.714" height="1.723"/>
<text transform="matrix(1 0 0 1 71.8276 33.9482)" fill="#FFFFFF" font-family="'ArialMT'" font-size="10">N</text>
<text transform="matrix(1 0 0 1 26.9956 77.4727)" fill="#FFFFFF" font-family="'ArialMT'" font-size="10">W</text>
</svg>
