<?xml version="1.0" encoding="utf-8"?>
<!-- Generator: Adobe Illustrator 16.0.3, SVG Export Plug-In . SVG Version: 6.00 Build 0)  -->
<!DOCTYPE svg PUBLIC "-//W3C//DTD SVG 1.1//EN" "http://www.w3.org/Graphics/SVG/1.1/DTD/svg11.dtd">
<svg version="1.1" id="Capa_1" xmlns="http://www.w3.org/2000/svg" xmlns:xlink="http://www.w3.org/1999/xlink" x="0px" y="0px"
	 width="150px" height="150px" viewBox="0 0 150 150" enable-background="new 0 0 150 150" xml:space="preserve">
<linearGradient id="SVGID_1_" gradientUnits="userSpaceOnUse" x1="18.7012" y1="75.3838" x2="131.6543" y2="75.3838">
	<stop  offset="0" style="stop-color:#4BA0B0"/>
	<stop  offset="0.1736" style="stop-color:#67A09B"/>
	<stop  offset="0.5666" style="stop-color:#A19F68"/>
	<stop  offset="0.8527" style="stop-color:#C59E45"/>
	<stop  offset="1" style="stop-color:#D29D37"/>
</linearGradient>
<circle fill="none" stroke="url(#SVGID_1_)" stroke-width="5" stroke-miterlimit="10" cx="75.178" cy="75.382" r="53.977"/>
<g>
	<linearGradient id="SVGID_2_" gradientUnits="userSpaceOnUse" x1="126.6357" y1="58.8477" x2="131.6357" y2="58.8477">
		<stop  offset="0" style="stop-color:#4BA0B0"/>
		<stop  offset="0.1736" style="stop-color:#67A09B"/>
		<stop  offset="0.5666" style="stop-color:#A19F68"/>
		<stop  offset="0.8527" style="stop-color:#C59E45"/>
		<stop  offset="1" style="stop-color:#D29D37"/>
	</linearGradient>
	<ellipse fill="url(#SVGID_2_)" stroke="#FFFFFF" stroke-miterlimit="10" cx="129.136" cy="58.848" rx="2.5" ry="4.311"/>
	<linearGradient id="SVGID_3_" gradientUnits="userSpaceOnUse" x1="117.5859" y1="68.8823" x2="120.8145" y2="68.8823">
		<stop  offset="0" style="stop-color:#4BA0B0"/>
		<stop  offset="0.1736" style="stop-color:#67A09B"/>
		<stop  offset="0.5666" style="stop-color:#A19F68"/>
		<stop  offset="0.8527" style="stop-color:#C59E45"/>
		<stop  offset="1" style="stop-color:#D29D37"/>
	</linearGradient>
	<ellipse fill="url(#SVGID_3_)" stroke="#FFFFFF" stroke-miterlimit="10" cx="119.2" cy="68.882" rx="1.614" ry="2.902"/>
	<linearGradient id="SVGID_4_" gradientUnits="userSpaceOnUse" x1="137.1514" y1="69.5137" x2="140.3779" y2="69.5137">
		<stop  offset="0" style="stop-color:#4BA0B0"/>
		<stop  offset="0.1736" style="stop-color:#67A09B"/>
		<stop  offset="0.5666" style="stop-color:#A19F68"/>
		<stop  offset="0.8527" style="stop-color:#C59E45"/>
		<stop  offset="1" style="stop-color:#D29D37"/>
	</linearGradient>
	<ellipse fill="url(#SVGID_4_)" stroke="#FFFFFF" stroke-miterlimit="10" cx="138.765" cy="69.514" rx="1.613" ry="2.902"/>
	<g id="XMLID_1_">
		<g>
			<linearGradient id="SVGID_5_" gradientUnits="userSpaceOnUse" x1="113.3877" y1="74.0669" x2="144.1123" y2="74.0669">
				<stop  offset="0" style="stop-color:#D29D37"/>
				<stop  offset="1" style="stop-color:#4BA0B0"/>
			</linearGradient>
			<polygon fill="url(#SVGID_5_)" points="143.677,73.89 144.112,77.801 131.945,72.836 130.393,84.69 134.18,87.483 134.18,89.286 
				122.512,88.974 122.512,87.237 126.635,84.69 125.8,72.836 113.388,76.684 113.76,73.208 125.8,65.138 126.635,58.848 
				131.636,58.848 132.288,65.138 			"/>
		</g>
		<g>
			<line fill="none" stroke="#FFFFFF" stroke-miterlimit="10" x1="126.635" y1="58.848" x2="125.8" y2="65.138"/>
			<line fill="none" stroke="#FFFFFF" stroke-miterlimit="10" x1="125.8" y1="65.138" x2="113.76" y2="73.208"/>
			<line fill="none" stroke="#FFFFFF" stroke-miterlimit="10" x1="113.76" y1="73.208" x2="113.388" y2="76.684"/>
			<line fill="none" stroke="#FFFFFF" stroke-miterlimit="10" x1="113.388" y1="76.684" x2="125.8" y2="72.836"/>
			<line fill="none" stroke="#FFFFFF" stroke-miterlimit="10" x1="125.8" y1="72.836" x2="126.635" y2="84.69"/>
			<line fill="none" stroke="#FFFFFF" stroke-miterlimit="10" x1="126.635" y1="84.69" x2="122.512" y2="87.237"/>
			<line fill="none" stroke="#FFFFFF" stroke-miterlimit="10" x1="122.512" y1="87.237" x2="122.512" y2="88.974"/>
			<line fill="none" stroke="#FFFFFF" stroke-miterlimit="10" x1="122.512" y1="88.974" x2="134.18" y2="89.286"/>
			<line fill="none" stroke="#FFFFFF" stroke-miterlimit="10" x1="134.18" y1="89.286" x2="134.18" y2="87.483"/>
			<line fill="none" stroke="#FFFFFF" stroke-miterlimit="10" x1="134.18" y1="87.483" x2="130.393" y2="84.69"/>
			<line fill="none" stroke="#FFFFFF" stroke-miterlimit="10" x1="130.393" y1="84.69" x2="131.945" y2="72.836"/>
			<line fill="none" stroke="#FFFFFF" stroke-miterlimit="10" x1="131.945" y1="72.836" x2="144.112" y2="77.801"/>
			<line fill="none" stroke="#FFFFFF" stroke-miterlimit="10" x1="144.112" y1="77.801" x2="143.677" y2="73.89"/>
			<line fill="none" stroke="#FFFFFF" stroke-miterlimit="10" x1="143.677" y1="73.89" x2="132.288" y2="65.138"/>
			<line fill="none" stroke="#FFFFFF" stroke-miterlimit="10" x1="132.288" y1="65.138" x2="131.636" y2="58.848"/>
			<line fill="none" stroke="#FFFFFF" stroke-miterlimit="10" x1="131.636" y1="58.848" x2="126.635" y2="58.848"/>
		</g>
	</g>
</g>
<g>
	<linearGradient id="SVGID_6_" gradientUnits="userSpaceOnUse" x1="18.1079" y1="84.4629" x2="24.4155" y2="84.4629">
		<stop  offset="0" style="stop-color:#D29D37"/>
		<stop  offset="0.1779" style="stop-color:#C09E4A"/>
		<stop  offset="0.5472" style="stop-color:#8FA078"/>
		<stop  offset="1" style="stop-color:#4BA0B0"/>
	</linearGradient>
	<path fill="url(#SVGID_6_)" stroke="#FFFFFF" stroke-miterlimit="10" d="M18.108,84.471c-0.014-4.746,1.385-8.602,3.129-8.606
		c1.741-0.006,3.166,3.841,3.179,8.589c0.013,4.75-1.388,8.604-3.13,8.609C19.542,93.066,18.121,89.221,18.108,84.471z"/>
	<linearGradient id="SVGID_7_" gradientUnits="userSpaceOnUse" x1="13.4365" y1="80.0186" x2="15.6665" y2="80.0186">
		<stop  offset="0" style="stop-color:#D29D37"/>
		<stop  offset="0.1779" style="stop-color:#C09E4A"/>
		<stop  offset="0.5472" style="stop-color:#8FA078"/>
		<stop  offset="1" style="stop-color:#4BA0B0"/>
	</linearGradient>
	<path fill="url(#SVGID_7_)" stroke="#FFFFFF" stroke-miterlimit="10" d="M15.641,79.463c0.018,1.793,0.241,3.557-1.064,3.566
		c-1.321,0.018-1.125-2.203-1.136-3.545c-0.015-1.359,0.468-2.469,1.075-2.477C15.124,77.002,15.627,78.102,15.641,79.463z"/>
	<linearGradient id="SVGID_8_" gradientUnits="userSpaceOnUse" x1="9.2563" y1="76.4258" x2="11.4839" y2="76.4258">
		<stop  offset="0" style="stop-color:#D29D37"/>
		<stop  offset="0.1779" style="stop-color:#C09E4A"/>
		<stop  offset="0.5472" style="stop-color:#8FA078"/>
		<stop  offset="1" style="stop-color:#4BA0B0"/>
	</linearGradient>
	<path fill="url(#SVGID_8_)" stroke="#FFFFFF" stroke-miterlimit="10" d="M11.458,75.867c0.018,1.791,0.242,3.555-1.063,3.57
		c-1.321,0.012-1.123-2.209-1.136-3.548c-0.015-1.363,0.465-2.472,1.074-2.476C10.94,73.406,11.446,74.505,11.458,75.867z"/>
	<linearGradient id="SVGID_9_" gradientUnits="userSpaceOnUse" x1="26.7544" y1="79.9824" x2="28.8374" y2="79.9824">
		<stop  offset="0" style="stop-color:#D29D37"/>
		<stop  offset="0.1779" style="stop-color:#C09E4A"/>
		<stop  offset="0.5472" style="stop-color:#8FA078"/>
		<stop  offset="1" style="stop-color:#4BA0B0"/>
	</linearGradient>
	<path fill="url(#SVGID_9_)" stroke="#FFFFFF" stroke-miterlimit="10" d="M28.813,79.426c0.018,1.791,0.229,3.557-0.992,3.568
		c-1.232,0.014-1.049-2.207-1.063-3.547c-0.014-1.361,0.435-2.471,1.003-2.477C28.324,76.965,28.799,78.063,28.813,79.426z"/>
	<linearGradient id="SVGID_10_" gradientUnits="userSpaceOnUse" x1="30.3799" y1="76.3652" x2="32.6069" y2="76.3652">
		<stop  offset="0" style="stop-color:#D29D37"/>
		<stop  offset="0.1779" style="stop-color:#C09E4A"/>
		<stop  offset="0.5472" style="stop-color:#8FA078"/>
		<stop  offset="1" style="stop-color:#4BA0B0"/>
	</linearGradient>
	<path fill="url(#SVGID_10_)" stroke="#FFFFFF" stroke-miterlimit="10" d="M32.582,75.808c0.018,1.79,0.242,3.554-1.063,3.569
		c-1.32,0.012-1.122-2.209-1.135-3.548c-0.015-1.362,0.466-2.471,1.075-2.476C32.064,73.348,32.569,74.445,32.582,75.808z"/>
	<g id="XMLID_2_">
		<g>
			<linearGradient id="SVGID_11_" gradientUnits="userSpaceOnUse" x1="5.3032" y1="69.2969" x2="37.2451" y2="69.2969">
				<stop  offset="0" style="stop-color:#D29D37"/>
				<stop  offset="0.1779" style="stop-color:#C09E4A"/>
				<stop  offset="0.5472" style="stop-color:#8FA078"/>
				<stop  offset="1" style="stop-color:#4BA0B0"/>
			</linearGradient>
			<polygon fill="url(#SVGID_11_)" points="5.777,72.589 5.303,70.405 19.043,73.985 19.657,62.942 15.162,58.258 14.946,56.968 
				19.895,58.818 20.358,57.314 22.01,57.31 22.551,58.811 27.349,56.936 27.35,58.224 22.958,62.646 23.488,73.972 37.245,70.133 
				36.853,72.285 24.299,81.641 17.99,81.658 			"/>
		</g>
		<g>
			<line fill="none" stroke="#FFFFFF" stroke-miterlimit="10" x1="17.99" y1="81.658" x2="5.777" y2="72.589"/>
			<line fill="none" stroke="#FFFFFF" stroke-miterlimit="10" x1="5.777" y1="72.589" x2="5.303" y2="70.405"/>
			<line fill="none" stroke="#FFFFFF" stroke-miterlimit="10" x1="5.303" y1="70.405" x2="19.043" y2="73.985"/>
			<line fill="none" stroke="#FFFFFF" stroke-miterlimit="10" x1="19.043" y1="73.985" x2="19.657" y2="62.942"/>
			<line fill="none" stroke="#FFFFFF" stroke-miterlimit="10" x1="19.657" y1="62.942" x2="15.162" y2="58.258"/>
			<line fill="none" stroke="#FFFFFF" stroke-miterlimit="10" x1="15.162" y1="58.258" x2="14.946" y2="56.968"/>
			<line fill="none" stroke="#FFFFFF" stroke-miterlimit="10" x1="14.946" y1="56.968" x2="19.895" y2="58.818"/>
			<line fill="none" stroke="#FFFFFF" stroke-miterlimit="10" x1="19.895" y1="58.818" x2="20.358" y2="57.314"/>
			<line fill="none" stroke="#FFFFFF" stroke-miterlimit="10" x1="20.358" y1="57.314" x2="22.01" y2="57.31"/>
			<line fill="none" stroke="#FFFFFF" stroke-miterlimit="10" x1="22.01" y1="57.31" x2="22.551" y2="58.811"/>
			<line fill="none" stroke="#FFFFFF" stroke-miterlimit="10" x1="22.551" y1="58.811" x2="27.349" y2="56.936"/>
			<line fill="none" stroke="#FFFFFF" stroke-miterlimit="10" x1="27.349" y1="56.936" x2="27.35" y2="58.224"/>
			<line fill="none" stroke="#FFFFFF" stroke-miterlimit="10" x1="27.35" y1="58.224" x2="22.958" y2="62.646"/>
			<line fill="none" stroke="#FFFFFF" stroke-miterlimit="10" x1="22.958" y1="62.646" x2="23.488" y2="73.972"/>
			<line fill="none" stroke="#FFFFFF" stroke-miterlimit="10" x1="23.488" y1="73.972" x2="37.245" y2="70.133"/>
			<line fill="none" stroke="#FFFFFF" stroke-miterlimit="10" x1="37.245" y1="70.133" x2="36.853" y2="72.285"/>
			<line fill="none" stroke="#FFFFFF" stroke-miterlimit="10" x1="36.853" y1="72.285" x2="24.299" y2="81.641"/>
			<line fill="none" stroke="#FFFFFF" stroke-miterlimit="10" x1="24.299" y1="81.641" x2="17.99" y2="81.658"/>
		</g>
	</g>
</g>
</svg>
