<?xml version="1.0" encoding="utf-8"?>
<!-- Generator: Adobe Illustrator 16.0.3, SVG Export Plug-In . SVG Version: 6.00 Build 0)  -->
<!DOCTYPE svg PUBLIC "-//W3C//DTD SVG 1.1//EN" "http://www.w3.org/Graphics/SVG/1.1/DTD/svg11.dtd">
<svg version="1.1" id="Capa_1" xmlns="http://www.w3.org/2000/svg" xmlns:xlink="http://www.w3.org/1999/xlink" x="0px" y="0px"
	 width="170px" height="150px" viewBox="0 0 170 150" enable-background="new 0 0 170 150" xml:space="preserve">
<g>
	<line fill="none" x1="52.931" y1="67.027" x2="9.63" y2="59.522"/>
	<g>
		
			<linearGradient id="SVGID_1_" gradientUnits="userSpaceOnUse" x1="232.2197" y1="-257.1753" x2="275.5418" y2="-257.1753" gradientTransform="matrix(1 0 0 -1 -222.5996 -193.9004)">
			<stop  offset="0" style="stop-color:#93D28B"/>
			<stop  offset="0.5" style="stop-color:#29A792"/>
		</linearGradient>
		<path fill="url(#SVGID_1_)" d="M53.1,66.414c-4.778-0.828-9.557-1.656-14.334-2.484c-7.727-1.339-15.454-2.678-23.181-4.017
			c-1.929-0.334-3.857-0.669-5.786-1.003c-0.802-0.139-1.145,1.086-0.338,1.227c4.778,0.828,9.557,1.656,14.334,2.484
			c7.727,1.339,15.454,2.678,23.181,4.017c1.929,0.334,3.857,0.669,5.786,1.003C53.564,67.779,53.907,66.553,53.1,66.414
			L53.1,66.414z"/>
	</g>
</g>
<g>
	<g>
		
			<linearGradient id="SVGID_2_" gradientUnits="userSpaceOnUse" x1="239.9414" y1="-264.4004" x2="279.1573" y2="-264.4004" gradientTransform="matrix(1 0 0 -1 -222.5996 -193.9004)">
			<stop  offset="0" style="stop-color:#93D28B"/>
			<stop  offset="0.5" style="stop-color:#29A792"/>
		</linearGradient>
		<path fill="url(#SVGID_2_)" d="M56.715,73.25c-5.101-0.875-10.202-1.751-15.303-2.626c-7.198-1.236-14.397-2.471-21.596-3.707
			c-0.765-0.132-1.53-0.263-2.295-0.394c-0.803-0.138-1.146,1.088-0.338,1.227c5.101,0.875,10.203,1.751,15.304,2.627
			c7.198,1.235,14.397,2.471,21.596,3.707c0.765,0.131,1.53,0.263,2.295,0.394C57.179,74.615,57.522,73.39,56.715,73.25
			L56.715,73.25z"/>
	</g>
</g>
<g>
	<g>
		
			<linearGradient id="SVGID_3_" gradientUnits="userSpaceOnUse" x1="244.5137" y1="-271.1533" x2="282.3961" y2="-271.1533" gradientTransform="matrix(1 0 0 -1 -222.5996 -193.9004)">
			<stop  offset="0" style="stop-color:#93D28B"/>
			<stop  offset="0.5" style="stop-color:#29A792"/>
		</linearGradient>
		<path fill="url(#SVGID_3_)" d="M59.954,79.996c-5.189-0.921-10.378-1.842-15.568-2.761c-6.937-1.23-13.874-2.461-20.812-3.691
			c-0.494-0.087-0.986-0.175-1.479-0.262c-0.802-0.142-1.145,1.083-0.338,1.227c5.189,0.92,10.378,1.84,15.568,2.761
			c6.938,1.23,13.875,2.461,20.812,3.691c0.494,0.087,0.986,0.174,1.48,0.263C60.417,81.365,60.761,80.139,59.954,79.996
			L59.954,79.996z"/>
	</g>
</g>
<g>
	<g>
		
			<linearGradient id="SVGID_4_" gradientUnits="userSpaceOnUse" x1="260.1475" y1="-280.8496" x2="307.3555" y2="-280.8496" gradientTransform="matrix(1 0 0 -1 -222.5996 -193.9004)">
			<stop  offset="0" style="stop-color:#93D28B"/>
			<stop  offset="0.5" style="stop-color:#29A792"/>
		</linearGradient>
		<path fill="url(#SVGID_4_)" d="M84.915,89.868c-4.544-0.681-9.089-1.36-13.634-2.041c-7.994-1.197-15.986-2.394-23.979-3.59
			c-3.192-0.478-6.384-0.955-9.576-1.434c-0.802-0.12-1.147,1.105-0.338,1.227c4.544,0.682,9.089,1.361,13.634,2.041
			c7.993,1.197,15.986,2.394,23.979,3.59c3.192,0.479,6.384,0.955,9.576,1.434C85.378,91.215,85.724,89.989,84.915,89.868
			L84.915,89.868z"/>
	</g>
</g>
<g>
	<g>
		
			<linearGradient id="SVGID_5_" gradientUnits="userSpaceOnUse" x1="339.6143" y1="-257.4297" x2="382.9799" y2="-257.4297" gradientTransform="matrix(1 0 0 -1 -222.5996 -193.9004)">
			<stop  offset="0.5" style="stop-color:#29A792"/>
			<stop  offset="1" style="stop-color:#93D28B"/>
		</linearGradient>
		<path fill="url(#SVGID_5_)" d="M117.193,67.64c4.798-0.774,9.598-1.548,14.396-2.323c7.741-1.25,15.484-2.499,23.227-3.749
			c1.907-0.308,3.815-0.616,5.724-0.924c0.808-0.13,0.463-1.356-0.339-1.227c-4.798,0.774-9.597,1.549-14.395,2.324
			c-7.742,1.25-15.485,2.499-23.228,3.749c-1.907,0.308-3.815,0.616-5.723,0.923C116.047,66.544,116.392,67.77,117.193,67.64
			L117.193,67.64z"/>
	</g>
</g>
<g>
	<g>
		
			<linearGradient id="SVGID_6_" gradientUnits="userSpaceOnUse" x1="336.0146" y1="-264.3613" x2="375.6644" y2="-264.3613" gradientTransform="matrix(1 0 0 -1 -222.5996 -193.9004)">
			<stop  offset="0.5" style="stop-color:#29A792"/>
			<stop  offset="1" style="stop-color:#93D28B"/>
		</linearGradient>
		<path fill="url(#SVGID_6_)" d="M113.596,74.509c5.053-0.876,10.106-1.752,15.16-2.627c7.271-1.26,14.542-2.521,21.814-3.782
			c0.884-0.153,1.768-0.306,2.651-0.459c0.808-0.14,0.465-1.365-0.338-1.227c-5.053,0.876-10.106,1.752-15.159,2.627
			c-7.272,1.26-14.543,2.521-21.815,3.782c-0.885,0.153-1.768,0.306-2.651,0.459C112.449,73.422,112.793,74.647,113.596,74.509
			L113.596,74.509z"/>
	</g>
</g>
<g>
	<g>
		
			<linearGradient id="SVGID_7_" gradientUnits="userSpaceOnUse" x1="332.6758" y1="-271.1504" x2="371.2123" y2="-271.1504" gradientTransform="matrix(1 0 0 -1 -222.5996 -193.9004)">
			<stop  offset="0.5" style="stop-color:#29A792"/>
			<stop  offset="1" style="stop-color:#93D28B"/>
		</linearGradient>
		<path fill="url(#SVGID_7_)" d="M148.433,73.25c-5.136,0.903-10.271,1.806-15.404,2.709c-7.072,1.243-14.144,2.486-21.216,3.73
			c-0.631,0.11-1.263,0.223-1.895,0.332c-0.807,0.143-0.464,1.369,0.338,1.228c5.135-0.903,10.269-1.806,15.404-2.709
			c7.071-1.244,14.144-2.486,21.216-3.73c0.632-0.112,1.263-0.223,1.895-0.333C149.577,74.335,149.234,73.11,148.433,73.25
			L148.433,73.25z"/>
	</g>
</g>
<g>
	<g>
		
			<linearGradient id="SVGID_8_" gradientUnits="userSpaceOnUse" x1="308.6084" y1="-280.8496" x2="356.451" y2="-280.8496" gradientTransform="matrix(1 0 0 -1 -222.5996 -193.9004)">
			<stop  offset="0.5" style="stop-color:#29A792"/>
			<stop  offset="1" style="stop-color:#93D28B"/>
		</linearGradient>
		<path fill="url(#SVGID_8_)" d="M86.187,91.094c4.497-0.664,8.994-1.327,13.492-1.991c8.011-1.184,16.023-2.368,24.034-3.551
			c3.433-0.508,6.866-1.014,10.298-1.521c0.81-0.119,0.464-1.345-0.337-1.227c-4.498,0.665-8.995,1.329-13.492,1.993
			c-8.012,1.183-16.022,2.366-24.035,3.551c-3.433,0.506-6.864,1.014-10.298,1.521C85.04,89.987,85.384,91.213,86.187,91.094
			L86.187,91.094z"/>
	</g>
</g>
</svg>
