<?xml version="1.0" encoding="utf-8"?>
<!-- Generator: Adobe Illustrator 16.0.3, SVG Export Plug-In . SVG Version: 6.00 Build 0)  -->
<!DOCTYPE svg PUBLIC "-//W3C//DTD SVG 1.1//EN" "http://www.w3.org/Graphics/SVG/1.1/DTD/svg11.dtd">
<svg version="1.1" id="Capa_1" xmlns="http://www.w3.org/2000/svg" xmlns:xlink="http://www.w3.org/1999/xlink" x="0px" y="0px"
	 width="150px" height="150px" viewBox="0 0 150 150" enable-background="new 0 0 150 150" xml:space="preserve">
<line fill="#0B0B0B" stroke="#AC1385" stroke-width="5" stroke-miterlimit="10" x1="108.09" y1="42.128" x2="124.631" y2="25.116"/>
<line fill="#0B0B0B" stroke="#AC1385" stroke-width="5" stroke-miterlimit="10" x1="108.734" y1="107.666" x2="126.166" y2="123.763"/>
<line fill="#0B0B0B" stroke="#AC1385" stroke-width="5" stroke-miterlimit="10" x1="22.016" y1="121.974" x2="38.557" y2="104.96"/>
<line fill="#0B0B0B" stroke="#AC1385" stroke-width="5" stroke-miterlimit="10" x1="23.101" y1="27.211" x2="40.064" y2="43.803"/>
<line fill="#0B0B0B" stroke="#AC1385" stroke-width="5" stroke-miterlimit="10" x1="118.784" y1="57.345" x2="131.765" y2="54.321"/>
<line fill="#0B0B0B" stroke="#AC1385" stroke-width="5" stroke-miterlimit="10" x1="94.04" y1="32.497" x2="100.296" y2="20.727"/>
<line fill="#0B0B0B" stroke="#AC1385" stroke-width="5" stroke-miterlimit="10" x1="119.123" y1="92.017" x2="131.425" y2="97.15"/>
<line fill="#0B0B0B" stroke="#AC1385" stroke-width="5" stroke-miterlimit="10" x1="93.927" y1="117.071" x2="100.408" y2="128.722"/>
<line fill="#0B0B0B" stroke="#AC1385" stroke-width="5" stroke-miterlimit="10" x1="54.313" y1="117.277" x2="46.906" y2="128.361"/>
<line fill="#0B0B0B" stroke="#AC1385" stroke-width="5" stroke-miterlimit="10" x1="29.631" y1="90.269" x2="16.765" y2="93.765"/>
<line fill="#0B0B0B" stroke="#AC1385" stroke-width="5" stroke-miterlimit="10" x1="18.101" y1="51.506" x2="30.186" y2="57.137"/>
<line fill="#0B0B0B" stroke="#AC1385" stroke-width="5" stroke-miterlimit="10" x1="49.055" y1="19.785" x2="55.329" y2="31.549"/>
<line fill="#0B0B0B" stroke="#AC1385" stroke-width="5" stroke-miterlimit="10" x1="75.105" y1="4.086" x2="75.06" y2="27.814"/>
<line fill="#0B0B0B" stroke="#AC1385" stroke-width="5" stroke-miterlimit="10" x1="75.105" y1="121.186" x2="75.06" y2="144.913"/>
<line fill="#0B0B0B" stroke="#AC1385" stroke-width="5" stroke-miterlimit="10" x1="122.104" y1="75.6" x2="145.832" y2="75.39"/>
<line fill="#0B0B0B" stroke="#AC1385" stroke-width="5" stroke-miterlimit="10" x1="2.168" y1="75.6" x2="25.895" y2="75.39"/>
</svg>
