<?xml version="1.0" encoding="utf-8"?>
<!-- Generator: Adobe Illustrator 16.0.3, SVG Export Plug-In . SVG Version: 6.00 Build 0)  -->
<!DOCTYPE svg PUBLIC "-//W3C//DTD SVG 1.1//EN" "http://www.w3.org/Graphics/SVG/1.1/DTD/svg11.dtd">
<svg version="1.1" id="Capa_1" xmlns="http://www.w3.org/2000/svg" xmlns:xlink="http://www.w3.org/1999/xlink" x="0px" y="0px"
	 width="170px" height="150px" viewBox="0 0 170 150" enable-background="new 0 0 170 150" xml:space="preserve">
<g>
	<g>
		<line fill="#FFFFFF" x1="52.762" y1="70.961" x2="9.461" y2="51.631"/>
		<g>
			<path fill="#FFFFFF" d="M52.931,69.382c-4.778-2.133-9.557-4.266-14.334-6.4c-7.727-3.448-15.454-6.898-23.181-10.347
				c-1.929-0.861-3.857-1.724-5.786-2.584c-0.802-0.357-1.145,2.799-0.338,3.16c4.778,2.133,9.557,4.266,14.334,6.399
				c7.727,3.45,15.454,6.898,23.181,10.347c1.929,0.862,3.857,1.724,5.786,2.584C53.395,72.899,53.738,69.741,52.931,69.382
				L52.931,69.382z"/>
		</g>
	</g>
	<g>
		<g>
			<path fill="#FFFFFF" d="M56.756,75.375c-5.168-2.096-10.337-4.19-15.506-6.287c-7.293-2.959-14.588-5.917-21.882-8.875
				c-0.775-0.315-1.55-0.629-2.325-0.943c-0.813-0.33-1.058,2.836-0.24,3.168c5.168,2.096,10.338,4.193,15.506,6.289
				c7.293,2.957,14.587,5.916,21.882,8.875c0.775,0.313,1.55,0.629,2.326,0.942C57.33,78.875,57.575,75.709,56.756,75.375
				L56.756,75.375z"/>
		</g>
	</g>
	<g>
		<g>
			<path fill="#FFFFFF" d="M60.189,82.16c-5.328-2.042-10.655-4.085-15.982-6.123c-7.122-2.73-14.243-5.46-21.365-8.189
				c-0.507-0.194-1.012-0.388-1.519-0.582c-0.823-0.314-0.968,2.856-0.14,3.175c5.328,2.041,10.654,4.082,15.982,6.125
				c7.123,2.729,14.244,5.461,21.365,8.189c0.507,0.193,1.012,0.385,1.52,0.583C60.872,85.652,61.017,82.479,60.189,82.16
				L60.189,82.16z"/>
		</g>
	</g>
	<g>
		<g>
			<path fill="#FFFFFF" d="M84.746,96.797c-4.544-1.752-9.089-3.503-13.634-5.258c-7.994-3.082-15.986-6.165-23.979-9.246
				c-3.192-1.23-6.384-2.461-9.576-3.691c-0.802-0.311-1.147,2.848-0.338,3.158c4.544,1.756,9.089,3.506,13.634,5.258
				c7.993,3.084,15.986,6.166,23.979,9.248c3.192,1.231,6.384,2.459,9.576,3.69C85.209,100.268,85.555,97.109,84.746,96.797
				L84.746,96.797z"/>
		</g>
	</g>
	<g>
		<g>
			<path fill="#FFFFFF" d="M116.616,70.669c4.874-1.8,9.75-3.599,14.624-5.401c7.863-2.906,15.73-5.811,23.596-8.715
				c1.938-0.717,3.877-1.432,5.814-2.147c0.82-0.304,0.604-3.472-0.211-3.171c-4.875,1.801-9.75,3.601-14.625,5.402
				c-7.864,2.906-15.729,5.811-23.596,8.715c-1.938,0.715-3.877,1.432-5.814,2.147C115.584,67.802,115.803,70.97,116.616,70.669
				L116.616,70.669z"/>
		</g>
	</g>
	<g>
		<g>
			<path fill="#FFFFFF" d="M112.979,78.344c5.149-2.027,10.299-4.056,15.449-6.083c7.408-2.917,14.817-5.836,22.229-8.755
				c0.9-0.353,1.801-0.708,2.701-1.063c0.822-0.323,0.621-3.492-0.195-3.171c-5.148,2.027-10.299,4.055-15.447,6.083
				c-7.41,2.918-14.818,5.836-22.229,8.755c-0.901,0.354-1.801,0.709-2.701,1.064C111.96,75.496,112.162,78.665,112.979,78.344
				L112.979,78.344z"/>
		</g>
	</g>
	<g>
		<g>
			<path fill="#FFFFFF" d="M148.8,67.054c-5.256,2.042-10.511,4.083-15.764,6.125c-7.237,2.809-14.474,5.619-21.711,8.43
				c-0.646,0.25-1.292,0.504-1.938,0.752c-0.824,0.32-0.656,3.496,0.164,3.176c5.256-2.042,10.508-4.081,15.764-6.124
				c7.236-2.812,14.475-5.619,21.711-8.43c0.646-0.253,1.293-0.502,1.939-0.753C149.789,69.908,149.62,66.737,148.8,67.054
				L148.8,67.054z"/>
		</g>
	</g>
	<g>
		<g>
			<path fill="#FFFFFF" d="M86.018,99.954c4.498-1.71,8.994-3.419,13.492-5.129c8.012-3.05,16.023-6.101,24.034-9.146
				c3.433-1.312,6.866-2.611,10.298-3.921c0.811-0.308,0.465-3.463-0.337-3.159c-4.498,1.715-8.995,3.424-13.491,5.135
				c-8.013,3.047-16.022,6.096-24.035,9.146c-3.434,1.304-6.865,2.61-10.299,3.916C84.871,97.104,85.215,100.262,86.018,99.954
				L86.018,99.954z"/>
		</g>
	</g>
</g>
</svg>
