<?xml version="1.0" encoding="utf-8"?>
<!-- Generator: Adobe Illustrator 16.0.3, SVG Export Plug-In . SVG Version: 6.00 Build 0)  -->
<!DOCTYPE svg PUBLIC "-//W3C//DTD SVG 1.1//EN" "http://www.w3.org/Graphics/SVG/1.1/DTD/svg11.dtd">
<svg version="1.1" id="Capa_1" xmlns="http://www.w3.org/2000/svg" xmlns:xlink="http://www.w3.org/1999/xlink" x="0px" y="0px"
	 width="150px" height="150px" viewBox="0 0 150 150" enable-background="new 0 0 150 150" xml:space="preserve">
<linearGradient id="SVGID_1_" gradientUnits="userSpaceOnUse" x1="52.918" y1="75" x2="97.0811" y2="75">
	<stop  offset="0" style="stop-color:#17A5B7"/>
	<stop  offset="0.0093" style="stop-color:#17A5B7"/>
	<stop  offset="0.2809" style="stop-color:#17A5B7"/>
	<stop  offset="0.6685" style="stop-color:#6959A7"/>
	<stop  offset="0.8876" style="stop-color:#6959A7"/>
	<stop  offset="1" style="stop-color:#6959A7"/>
</linearGradient>
<circle fill="url(#SVGID_1_)" stroke="#FFFFFF" stroke-width="1.5" stroke-miterlimit="10" cx="75" cy="75.001" r="22.082"/>
<linearGradient id="SVGID_2_" gradientUnits="userSpaceOnUse" x1="21.6318" y1="75.4941" x2="128.6309" y2="75.4941">
	<stop  offset="0" style="stop-color:#1AA08A"/>
	<stop  offset="0.0093" style="stop-color:#1AA08A"/>
	<stop  offset="0.2809" style="stop-color:#1AA08A"/>
	<stop  offset="0.6633" style="stop-color:#41AA54"/>
	<stop  offset="0.8929" style="stop-color:#41AA54"/>
	<stop  offset="1" style="stop-color:#41AA54"/>
</linearGradient>
<circle fill="none" stroke="url(#SVGID_2_)" stroke-width="5" stroke-miterlimit="10" cx="75.131" cy="75.494" r="51"/>
<g>
	<ellipse fill="#3196C3" stroke="#FFFFFF" stroke-miterlimit="10" cx="24.479" cy="57.536" rx="3.965" ry="9.882"/>
	<path fill="#3196C3" stroke="#FFFFFF" stroke-miterlimit="10" d="M40.504,71.778c0,0.912-0.499,1.652-1.115,1.652h-1.827
		c-0.616,0-1.116-0.74-1.116-1.652V69.07c0-0.912,0.5-1.652,1.116-1.652h1.827c0.616,0,1.115,0.74,1.115,1.652V71.778z"/>
	<path fill="#3196C3" stroke="#FFFFFF" stroke-miterlimit="10" d="M12.776,71.778c0,0.912-0.499,1.652-1.115,1.652H9.833
		c-0.616,0-1.115-0.74-1.115-1.652V69.07c0-0.912,0.5-1.652,1.115-1.652h1.828c0.616,0,1.115,0.74,1.115,1.652V71.778z"/>
	<g id="XMLID_2_">
		<g>
			<polygon fill="#3196C3" points="49.073,75.833 49.073,78.087 32.013,74.404 28.257,74.255 27.053,87.857 35.322,91.839 
				35.322,94.77 26.079,92.664 24.276,97.926 22.698,92.664 13.752,94.77 13.752,92.213 21.945,87.857 21.043,74.255 16.309,74.557 
				0.001,78.39 0.001,76.36 20.516,64.936 20.669,58.475 28.257,58.475 28.631,63.961 			"/>
		</g>
		<g>
			<line fill="none" stroke="#FFFFFF" stroke-miterlimit="10" x1="20.669" y1="58.475" x2="20.516" y2="64.936"/>
			<line fill="none" stroke="#FFFFFF" stroke-miterlimit="10" x1="20.516" y1="64.936" x2="0.001" y2="76.36"/>
			<line fill="none" stroke="#FFFFFF" stroke-miterlimit="10" x1="0.001" y1="76.36" x2="0.001" y2="78.39"/>
			<line fill="none" stroke="#FFFFFF" stroke-miterlimit="10" x1="0.001" y1="78.39" x2="16.309" y2="74.557"/>
			<line fill="none" stroke="#FFFFFF" stroke-miterlimit="10" x1="16.309" y1="74.557" x2="21.043" y2="74.255"/>
			<line fill="none" stroke="#FFFFFF" stroke-miterlimit="10" x1="21.043" y1="74.255" x2="21.945" y2="87.857"/>
			<line fill="none" stroke="#FFFFFF" stroke-miterlimit="10" x1="21.945" y1="87.857" x2="13.752" y2="92.213"/>
			<line fill="none" stroke="#FFFFFF" stroke-miterlimit="10" x1="13.752" y1="92.213" x2="13.752" y2="94.77"/>
			<line fill="none" stroke="#FFFFFF" stroke-miterlimit="10" x1="13.752" y1="94.77" x2="22.698" y2="92.664"/>
			<line fill="none" stroke="#FFFFFF" stroke-miterlimit="10" x1="22.698" y1="92.664" x2="24.276" y2="97.926"/>
			<line fill="none" stroke="#FFFFFF" stroke-miterlimit="10" x1="24.276" y1="97.926" x2="26.079" y2="92.664"/>
			<line fill="none" stroke="#FFFFFF" stroke-miterlimit="10" x1="26.079" y1="92.664" x2="35.322" y2="94.77"/>
			<line fill="none" stroke="#FFFFFF" stroke-miterlimit="10" x1="35.322" y1="94.77" x2="35.322" y2="91.839"/>
			<line fill="none" stroke="#FFFFFF" stroke-miterlimit="10" x1="35.322" y1="91.839" x2="27.053" y2="87.857"/>
			<line fill="none" stroke="#FFFFFF" stroke-miterlimit="10" x1="27.053" y1="87.857" x2="28.257" y2="74.255"/>
			<line fill="none" stroke="#FFFFFF" stroke-miterlimit="10" x1="28.257" y1="74.255" x2="32.013" y2="74.404"/>
			<line fill="none" stroke="#FFFFFF" stroke-miterlimit="10" x1="32.013" y1="74.404" x2="49.073" y2="78.087"/>
			<line fill="none" stroke="#FFFFFF" stroke-miterlimit="10" x1="49.073" y1="78.087" x2="49.073" y2="75.833"/>
			<line fill="none" stroke="#FFFFFF" stroke-miterlimit="10" x1="49.073" y1="75.833" x2="28.631" y2="63.961"/>
			<line fill="none" stroke="#FFFFFF" stroke-miterlimit="10" x1="28.631" y1="63.961" x2="28.257" y2="58.475"/>
			<line fill="none" stroke="#FFFFFF" stroke-miterlimit="10" x1="28.257" y1="58.475" x2="20.669" y2="58.475"/>
		</g>
	</g>
</g>
</svg>
